<svg xmlns="http://www.w3.org/2000/svg" viewBox="0 0 600 360" width="600" height="360">
  <defs>
    <linearGradient id="bgGrad3" x1="0%" y1="0%" x2="100%" y2="100%">
      <stop offset="0%" stop-color="#061826" />
      <stop offset="100%" stop-color="#0F2B3C" />
    </linearGradient>
    <linearGradient id="accentGrad3" x1="0%" y1="0%" x2="100%" y2="100%">
      <stop offset="0%" stop-color="#10B981" />
      <stop offset="100%" stop-color="#06B6D4" />
    </linearGradient>
  </defs>
  <rect width="600" height="360" fill="url(#bgGrad3)" />
  
  <!-- Subtle tech circles -->
  <g opacity="0.15" stroke="#10B981" stroke-width="1.5">
    <circle cx="100" cy="180" r="80" fill="none" />
    <circle cx="500" cy="180" r="80" fill="none" />
  </g>

  <!-- Central Project Expo Graphic -->
  <circle cx="300" cy="160" r="60" fill="rgba(16, 185, 129, 0.08)" stroke="url(#accentGrad3)" stroke-width="2" />
  
  <!-- Trophy / Expo Icon -->
  <path d="M280 135 H320 V160 C320 172 310 180 300 180 C290 180 280 172 280 160 Z" fill="none" stroke="#10B981" stroke-width="2.5" stroke-linejoin="round" />
  <path d="M280 142 H272 C267 142 264 146 264 150 C264 158 271 163 280 164" stroke="#10B981" stroke-width="2" fill="none" />
  <path d="M320 142 H328 C333 142 336 146 336 150 C336 158 329 163 320 164" stroke="#10B981" stroke-width="2" fill="none" />
  <path d="M300 180 V192 M286 192 H314" stroke="#10B981" stroke-width="2.5" stroke-linecap="round" />

  <!-- Label Badge -->
  <rect x="200" y="270" width="200" height="32" rx="16" fill="rgba(16, 185, 129, 0.15)" stroke="rgba(16, 185, 129, 0.35)" stroke-width="1" />
  <text x="300" y="291" font-family="'Plus Jakarta Sans', sans-serif" font-size="12" font-weight="700" fill="#34D399" text-anchor="middle" letter-spacing="1.5">
    [ANNUAL TECH EXPO]
  </text>
</svg>
